<svg width="44" height="44" viewBox="0 0 44 44" fill="none" xmlns="http://www.w3.org/2000/svg">
<path d="M21.9999 40.7835C32.2571 40.7835 40.7835 32.2756 40.7835 22C40.7835 11.7427 32.2387 3.21648 21.9815 3.21648C11.7058 3.21648 3.21643 11.7427 3.21643 22C3.21643 32.2756 11.7242 40.7835 21.9999 40.7835ZM21.9999 28.2796C16.4569 28.2796 12.1846 30.25 10.3246 32.4598C7.85702 29.6975 6.36534 26.0329 6.36534 22C6.36534 13.3264 13.2895 6.34708 21.9815 6.34708C30.655 6.34708 37.6343 13.3264 37.6529 22C37.6529 26.0514 36.1612 29.7159 33.6751 32.4782C31.8152 30.2684 27.5429 28.2796 21.9999 28.2796ZM21.9999 25.149C25.5356 25.1858 28.3163 22.1657 28.3163 18.2065C28.3163 14.4866 25.5172 11.3929 21.9999 11.3929C18.4642 11.3929 15.6467 14.4866 15.6835 18.2065C15.7019 22.1657 18.4458 25.1121 21.9999 25.149Z" fill="black"/>
</svg>
