<svg 
	viewBox="0 0 220 160"
	fill="none" 
	xmlns="http://www.w3.org/2000/svg">
	<rect 
		x="-50" 
		y="64" 
		width="90" 
		height="90"
		rx="12"
		ry="12"
		transform="rotate(-45)"
		fill="#000000"
		stroke="#1B2636"
		stroke-width="1" />
	<rect 
		x="2" 
		y="116" 
		width="90" 
		height="90"
		rx="12"
		ry="12"
		transform="rotate(-45)"
		fill="#000000"
		stroke="#1B2636"
		stroke-width="1" />
	<rect 
		x="-42" 
		y="72" 
		width="50" 
		height="50"
		rx="12"
		ry="12"
		transform="rotate(-45)"
		fill="#404040"
		stroke="#1B2636"
		stroke-width="1" />
	<rect 
		x="34" 
		y="148" 
		width="50" 
		height="50"
		rx="12"
		ry="12"
		transform="rotate(-45)"
		fill="#404040"
		stroke="#1B2636"
		stroke-width="1" />
	<rect 
		x="-36" 
		y="78" 
		width="80" 
		height="80"
		rx="12"
		ry="12"
		transform="rotate(-45)"
		fill="#808080"
		stroke="#1B2636"
		stroke-width="1" />
	<rect 
		x="-2" 
		y="112" 
		width="80" 
		height="80"
		rx="12"
		ry="12"
		transform="rotate(-45)"
		fill="#808080"
		stroke="#1B2636"
		stroke-width="1" />
	<rect 
		x="-38" 
		y="129" 
		width="65" 
		height="65"
		rx="12"
		ry="12"
		transform="rotate(-45)"
		fill="#C0C0C0"
		stroke="#1B2636"
		stroke-width="1" />
	<rect 
		x="16" 
		y="75" 
		width="65" 
		height="65"
		rx="12"
		ry="12"
		transform="rotate(-45)"
		fill="#C0C0C0"
		stroke="#1B2636"
		stroke-width="1" />
	<rect 
		x="-29" 
		y="85" 
		width="100" 
		height="100"
		rx="12"
		ry="12"
		transform="rotate(-45)"
		fill="#FFFFFF"
		stroke="#1B2636"
		stroke-width="1" />
</svg>
